<svg width="455" height="525" viewBox="0 0 455 525" fill="none" xmlns="http://www.w3.org/2000/svg">
<path d="M321.605 433.626C318.704 432.925 317.087 431.498 317.087 429.639C317.087 427.882 319.619 424.457 321.84 423.211C322.298 422.954 324.24 421.563 326.154 420.121C328.068 418.679 331.005 416.739 332.679 415.809C335.742 414.109 336.208 413.566 335.378 412.666C335.121 412.387 335.112 412.151 335.343 411.749C335.566 411.362 335.588 408.59 335.422 402.027C335.177 392.329 334.647 358.815 334.525 345.304L334.453 337.294L333.041 336.746C329.094 335.214 327.14 333.971 325.275 331.805C319.533 325.138 317.921 322.25 317.787 318.391C317.745 317.205 317.577 315.337 317.413 314.242C317.048 311.804 317.026 310.099 317.253 301.645L317.43 295.024L316.764 294.831C315.755 294.538 315.675 294.574 315.672 295.318C315.671 295.698 315.439 297.059 315.155 298.343C314.745 300.203 314.394 300.995 313.433 302.232C312.141 303.896 311.155 304.435 309.41 304.435C308.413 304.435 308.339 304.489 308.605 305.028C309.466 306.775 308.418 309.253 306.439 310.151C301.362 312.453 290.017 311.757 277.85 308.397C266.637 305.301 255.355 300.001 251.503 296.02C251.076 295.578 250.727 295.101 250.727 294.96C250.727 294.819 250.276 293.894 249.724 292.904C248.833 291.304 248.742 290.947 248.9 289.681L249.077 288.258L247.664 288.047C245.68 287.751 244.038 287.186 243.377 286.572C243.056 286.273 242.343 286.048 241.717 286.048C241.114 286.048 239.788 285.769 238.771 285.428C236.114 284.538 235.194 283.058 236.143 281.203C236.52 280.465 237.936 279.312 238.47 279.309C238.64 279.307 239.579 279.867 240.555 280.552C241.713 281.364 242.428 281.694 242.608 281.498C243.027 281.044 242.689 280.661 240.363 278.959C238.983 277.948 238.12 277.085 237.923 276.519C237.686 275.838 237.208 275.461 235.772 274.822C233.711 273.904 232.922 273.153 233.127 272.303C233.349 271.379 235.758 268.581 236.33 268.581C236.88 268.581 240.292 271.239 241.267 272.428C241.578 272.806 242.207 273.371 242.665 273.682C243.434 274.205 243.484 274.207 243.311 273.717C243.208 273.424 243.04 272.504 242.938 271.671C242.71 269.805 241.829 268.812 239.885 268.228C238.138 267.703 237.216 266.524 237.612 265.322C238.127 263.76 240.789 262.898 242.685 263.68C243.097 263.85 243.387 263.885 243.331 263.757C243.275 263.629 242.983 263 242.683 262.359C241.943 260.781 242.294 260.254 244.401 259.774C247.066 259.166 247.566 259.318 248.944 261.156C249.609 262.044 250.235 263.147 250.334 263.607C250.433 264.068 250.993 264.996 251.577 265.67C252.162 266.344 253.369 268.133 254.26 269.647L255.88 272.398L256.943 270.106C258.33 267.118 258.853 266.62 260.576 266.648C262.265 266.675 263.052 266.936 263.265 267.54C263.356 267.798 262.973 269.518 262.413 271.363C261.312 274.995 260.64 275.936 259.147 275.936H258.324L259.255 276.947C260.182 277.952 263.001 280.226 263.321 280.226C263.413 280.226 264.397 280.694 265.508 281.266C266.619 281.838 268.037 282.456 268.658 282.639C269.279 282.821 270.27 283.328 270.86 283.765C272.063 284.655 272.974 284.951 279.315 286.509C281.759 287.11 285.317 288.151 287.221 288.822C289.126 289.493 291.192 290.124 291.813 290.225C293.413 290.483 301.455 292.657 302.932 293.23C303.612 293.494 304.464 293.71 304.826 293.71C305.475 293.71 305.478 293.693 305.073 292.446C304.207 289.782 304.726 284.54 306.389 279.165C307.013 277.149 307.764 274.253 308.058 272.73C308.353 271.206 308.873 269.202 309.214 268.275C309.555 267.348 310.49 264.521 311.292 261.992C312.345 258.67 312.874 257.394 313.198 257.391C313.445 257.389 313.926 257.113 314.267 256.779C314.775 256.279 315.288 256.17 317.116 256.17H319.346V254.841C319.346 253.565 319.448 253.406 321.887 250.894C323.285 249.454 324.428 248.155 324.428 248.006C324.428 247.858 324.174 247.5 323.864 247.212C322.659 246.092 323.346 244.761 325.572 243.903C328.259 242.867 335.58 241.622 339.028 241.616L340.497 241.613L340.581 236.866C340.645 233.282 340.579 232.083 340.312 231.973C340.118 231.892 339.959 231.496 339.959 231.093C339.959 230.365 339.939 230.36 336.077 230.186C331.341 229.974 323.772 228.756 320.334 227.652C318.936 227.204 317.394 226.712 316.906 226.559C315.778 226.205 310.988 220.839 309 217.701C306.11 213.141 303.975 207.548 303.243 202.62C302.787 199.553 303.035 191.89 303.669 189.415C304.015 188.064 304.048 187.524 303.805 187.206C303.43 186.715 303.671 186.146 304.255 186.146C304.479 186.146 304.662 185.974 304.663 185.763C304.666 184.847 307.247 179.285 308.841 176.759C313.441 169.471 319.205 164.398 328.421 159.524C334.739 156.183 341.423 154.302 348.821 153.783C351.217 153.614 351.831 153.476 351.927 153.081C351.993 152.811 353.029 148.649 354.228 143.832L356.409 135.074L355.647 134.247C355.018 133.564 354.916 133.247 355.068 132.432C355.169 131.889 355.477 131.1 355.752 130.679C357.302 128.306 361.623 131.193 360.157 133.622C359.902 134.044 359.426 134.497 359.098 134.628C358.604 134.826 358.091 136.334 356.056 143.575C354.71 148.365 353.521 152.572 353.415 152.925C353.227 153.547 353.331 153.573 356.685 153.759C379.785 155.037 399.091 170.293 402.52 189.977C403.195 193.851 403.141 199.254 402.387 203.226C401.613 207.307 400.725 209.925 398.556 214.523C396.982 217.859 396.478 218.616 394.058 221.281C392.559 222.932 391.262 224.587 391.176 224.959C390.916 226.083 387.632 229.283 386.529 229.487C385.456 229.684 376.805 230.193 369.539 230.485C365.119 230.662 364.809 230.713 364.809 231.265C364.809 232.008 364.277 238.987 364.122 240.282L364.006 241.25L366.031 241.452C369.596 241.808 374.779 242.799 376.615 243.477C378.035 244 378.53 244.36 379.056 245.248C379.42 245.862 380.317 246.984 381.049 247.743C381.782 248.501 382.876 249.789 383.479 250.605C384.512 252.002 384.576 252.209 384.576 254.176V256.264L386.058 255.643C388.942 254.434 394.668 254.961 395.207 256.486C395.304 256.758 395.101 257.637 394.755 258.437L394.127 259.892L396.832 266.152C398.319 269.595 399.925 273.17 400.399 274.097C402.319 277.853 403.315 280.383 403.929 283.069C404.284 284.624 404.771 286.447 405.011 287.121C405.251 287.796 405.453 288.937 405.46 289.657C405.47 290.8 405.373 291.014 404.695 291.331C404.268 291.531 403.021 291.671 401.924 291.641L399.929 291.588L400.418 293.338C400.687 294.301 401.013 295.779 401.142 296.621L401.377 298.154L403.919 298.368C405.317 298.486 406.662 298.6 406.909 298.621C407.678 298.686 408.34 303.261 408.591 310.258C408.767 315.131 408.95 317.056 409.409 318.839C409.734 320.103 410.126 322.309 410.281 323.742C410.709 327.714 411.198 344.931 410.917 346.11C410.658 347.197 410.323 347.501 409.072 347.786C408.393 347.941 408.296 348.106 408.298 349.107C408.298 349.736 408.485 350.637 408.712 351.109C409.114 351.946 409.013 354.144 408.411 357.644C408.307 358.246 408.414 358.96 408.702 359.56C409.295 360.805 409.702 363.198 409.507 364.289C409.422 364.763 409.051 365.365 408.682 365.628C407.86 366.212 407.291 365.818 406.686 364.245L406.292 363.225L405.388 364.448C404.269 365.962 401.688 368.484 401.258 368.484C401.083 368.484 400.838 368.174 400.713 367.794C400.589 367.415 400.134 366.036 399.703 364.729C399.272 363.422 398.417 361.51 397.805 360.481C396.789 358.775 396.648 358.65 396.21 359.064C395.946 359.314 395.282 359.744 394.735 360.019C394.189 360.294 392.957 361.208 391.998 362.05C390.18 363.647 389.654 363.853 389.135 363.175C388.683 362.584 387.935 358.45 388.129 357.612C388.382 356.517 389.481 355.58 390.725 355.399L391.848 355.236L391.18 353.969C390.333 352.361 390.339 351.892 391.219 350.756C391.648 350.203 391.817 349.759 391.642 349.642C391.482 349.535 391.353 348.307 391.353 346.888C391.353 345.48 391.171 342.765 390.949 340.854C390.727 338.943 390.331 333.932 390.069 329.718C389.489 320.372 388.222 310.57 386.969 305.721C386.28 303.057 386.425 302.568 388.105 301.898C388.882 301.589 389.764 301.073 390.064 300.752C390.605 300.174 390.604 300.15 389.946 298.624C389.344 297.23 389.19 297.081 388.35 297.081C387.279 297.081 386.994 296.658 386.702 294.63C386.368 292.311 385.106 285.603 384.978 285.465C384.912 285.393 384.858 285.702 384.858 286.151C384.858 286.673 384.705 286.968 384.435 286.968C384.081 286.968 384.011 287.593 384.011 290.748C384.011 292.827 383.946 294.598 383.867 294.684C383.788 294.77 383.667 299.102 383.598 304.311C383.428 317.157 383.277 318.911 382.048 322.377C381.557 323.758 380.583 325.545 379.459 327.122C378.468 328.514 377.263 330.225 376.78 330.924C376.297 331.624 375.471 332.59 374.944 333.071C373.858 334.064 366.468 337.968 364.702 338.482C363.025 338.97 362.957 339.078 363.91 339.733C365.365 340.733 365.425 341.721 364.93 356.761C364.659 365.009 364.375 370.305 364.191 370.545C364.027 370.76 363.641 370.936 363.332 370.936C362.861 370.936 362.803 371.07 362.968 371.778C364.37 377.769 364.933 381.138 364.905 383.347C364.888 384.695 364.848 388.476 364.818 391.748L364.764 397.698L365.442 398.145C366.005 398.516 366.201 399.066 366.598 401.388C366.86 402.927 367.082 405.633 367.09 407.403C367.117 413.344 367.825 415.118 370.222 415.252C372.422 415.375 378.111 419.227 380.128 421.959C381.022 423.171 381.892 423.987 382.678 424.352C384.346 425.127 385.705 426.624 385.705 427.684C385.705 428.909 384.159 429.911 380.745 430.897C378.394 431.577 377.165 431.73 373.153 431.845C366.287 432.043 362.35 431.217 360.144 429.114C358.469 427.518 358.18 424.813 359.404 422.188C359.699 421.557 360.035 420.557 360.152 419.967C360.268 419.378 360.529 418.636 360.732 418.319C361.047 417.827 361.014 417.615 360.504 416.867C359.933 416.028 359.922 415.868 360.251 413.152C360.44 411.591 360.564 408.935 360.527 407.25C360.49 405.564 360.499 398.324 360.544 391.161C360.631 378.048 360.508 371.485 360.148 369.952C360.035 369.475 359.555 368.867 359.018 368.524C358.116 367.946 358.078 367.843 357.921 365.523C357.831 364.202 357.627 361.466 357.468 359.444C357.309 357.421 357.18 352.181 357.182 347.799L357.185 339.831L353.443 339.918C351.385 339.965 347.634 339.897 345.109 339.764C341.522 339.577 340.546 339.607 340.65 339.901C340.723 340.108 340.799 347.664 340.818 356.693C340.845 369.072 340.769 373.219 340.513 373.553C340.326 373.798 339.711 374.148 339.145 374.332L338.115 374.666L339.012 387.893C339.505 395.168 339.919 401.139 339.933 401.161C339.947 401.185 340.213 401.275 340.523 401.363C341.067 401.517 341.088 401.78 341.088 408.6C341.088 412.53 341.199 415.677 341.339 415.677C341.477 415.677 342.322 416.458 343.216 417.413C344.816 419.121 344.843 419.18 344.974 421.174C345.048 422.287 344.95 424.023 344.761 425.03C344.475 426.545 344.205 427.082 343.203 428.131C341.228 430.197 335.765 432.193 328.663 433.443C324.703 434.14 323.826 434.162 321.605 433.626ZM328.091 431.601C336.352 430.138 341.926 427.843 342.722 425.575C342.888 425.103 343.107 424.171 343.209 423.505L343.395 422.293L342.126 423.562C340.523 425.166 338.662 426.191 335.609 427.151C330.149 428.869 324.906 429.574 323.106 428.833C321.927 428.349 321.041 427.319 321.033 426.425C321.026 425.658 320.995 425.672 319.914 426.914C317.682 429.481 318.258 430.99 321.76 431.744C324.363 432.305 324.078 432.312 328.091 431.601ZM380.11 429.346C381.614 428.96 383.193 428.396 383.619 428.093L384.394 427.543L383.225 426.36C382.582 425.709 381.945 425.176 381.808 425.176C381.672 425.176 381.418 425.514 381.245 425.928C380.844 426.882 379.882 427.404 377.264 428.089C374.62 428.78 370.2 428.562 367.561 427.61C365.409 426.834 362.394 424.943 361.208 423.627L360.331 422.653L360.021 423.903C359.65 425.396 359.867 426.603 360.681 427.581C361.569 428.647 362.668 429.171 365.356 429.811C368.712 430.61 376.098 430.377 380.11 429.346ZM364.217 414.271L366.15 413.171L365.91 412.049C365.778 411.432 365.667 409.497 365.663 407.749C365.659 405.99 365.442 403.446 365.177 402.048C364.782 399.961 364.577 399.449 363.993 399.094L363.287 398.664L363.234 393.303C363.207 390.355 363.3 386.702 363.444 385.185C363.679 382.702 363.638 382.151 363.027 379.669L362.349 376.911L362.373 379.975C362.428 386.49 361.99 413.855 361.82 414.592C361.579 415.633 361.895 415.59 364.217 414.271ZM339.677 408.935C339.677 404.603 339.609 403.725 339.27 403.725C339.046 403.725 338.803 403.619 338.729 403.489C338.655 403.359 338.264 398.291 337.859 392.227C337.455 386.163 337.08 380.925 337.027 380.588C336.974 380.251 336.913 387.094 336.892 395.796C336.871 404.497 336.779 412.02 336.688 412.514C336.527 413.389 336.56 413.419 338.029 413.73C338.858 413.906 339.568 414.071 339.607 414.097C339.645 414.124 339.677 411.8 339.677 408.935ZM362.178 375.781C362.088 375.536 362.021 375.609 362.008 375.966C361.994 376.289 362.062 376.47 362.156 376.368C362.25 376.266 362.258 376.002 362.178 375.781ZM403.3 364.599C404.036 363.811 404.717 362.829 404.812 362.417C405.023 361.504 404.427 357.692 403.968 357.019C403.665 356.574 403.428 356.575 401.236 357.022C399.916 357.292 398.688 357.602 398.507 357.711C398.282 357.847 398.521 358.542 399.261 359.902C399.857 360.998 400.637 362.825 400.996 363.962C401.354 365.1 401.717 366.031 401.804 366.031C401.89 366.031 402.563 365.387 403.3 364.599ZM407.872 361.741C407.765 361.212 407.614 360.847 407.536 360.931C407.458 361.016 407.483 361.518 407.59 362.048C407.697 362.578 407.848 362.942 407.926 362.858C408.004 362.774 407.979 362.271 407.872 361.741ZM391.985 360.056C392.868 359.382 393.595 358.658 393.601 358.447C393.618 357.776 392.51 356.838 391.698 356.838C390.55 356.838 389.659 357.632 389.659 358.656C389.659 359.86 389.979 361.477 390.197 361.37C390.297 361.322 391.101 360.73 391.985 360.056ZM406.946 356.823C407.053 356.032 407.013 355.954 406.685 356.309C406.472 356.54 406.38 356.961 406.48 357.243C406.732 357.957 406.801 357.895 406.946 356.823ZM394.999 354.063C394.839 352.471 394.619 350.785 394.51 350.315L394.313 349.461L393.212 350.891L392.111 352.321L392.591 353.277C393.254 354.599 395.042 357.227 395.178 357.079C395.24 357.012 395.158 355.655 394.999 354.063ZM397.105 354.198C396.661 351.899 396.053 350.462 396.277 352.241C396.351 352.831 396.491 354.115 396.587 355.093C396.726 356.503 396.839 356.804 397.129 356.543C397.427 356.274 397.423 355.846 397.105 354.198ZM407.731 344.886C408.048 344.212 408.433 343.661 408.587 343.661C408.756 343.661 408.795 344.149 408.687 344.886C408.542 345.868 408.592 346.112 408.938 346.112C409.578 346.112 409.816 343.097 409.45 339.641C409.282 338.059 409.171 335.318 409.202 333.548C409.276 329.452 408.729 322.6 408.138 320.217C407.406 317.263 406.886 313.351 406.885 310.794C406.884 309.488 406.84 308.419 406.787 308.419C406.3 308.419 403.332 309.749 402.412 310.379C401.059 311.306 399.968 311.411 399.693 310.641C397.951 305.76 397.546 304.334 397.818 304.038C398.122 303.708 399.326 306.231 400.091 308.802C400.279 309.434 400.482 309.951 400.542 309.951C400.603 309.951 401.451 309.477 402.427 308.898C403.403 308.319 404.805 307.682 405.543 307.483C406.28 307.283 406.883 307.034 406.883 306.927C406.88 305.878 406.201 301.095 405.998 300.681C405.634 299.94 404.804 300.01 403.56 300.887C402.981 301.295 401.109 302.262 399.401 303.036C397.692 303.811 396.121 304.563 395.91 304.709C394.971 305.355 394.763 311.43 395.447 318.225C395.677 320.501 395.997 324.155 396.159 326.346C396.693 333.565 397.27 337.565 398.023 339.279C398.696 340.811 401.217 343.66 401.902 343.662C402.079 343.662 402.987 344.213 403.919 344.887C406.153 346.5 406.973 346.5 407.731 344.886ZM361.279 331.839C363.454 331.748 365.677 331.524 366.221 331.341C368.526 330.564 375.109 324.728 376.253 322.447C376.684 321.586 378.178 319.521 379.573 317.857L382.108 314.831L382.091 312.207C382.081 310.764 382.012 309.518 381.937 309.436C381.863 309.355 380.89 310.543 379.776 312.075C376.88 316.059 376.186 316.344 375.231 313.935C374.897 313.092 374.524 312.403 374.401 312.403C374.279 312.403 373.902 311.782 373.564 311.024C373.225 310.265 372.795 309.645 372.607 309.645C372.255 309.645 369.298 313.367 368.403 314.935C367.521 316.482 366.825 316.005 365.344 312.839C364.628 311.309 363.99 309.888 363.927 309.68C363.715 308.99 362.942 309.65 360.727 312.408C357.526 316.394 357.234 316.394 354.838 312.387C353.935 310.878 353.035 309.643 352.837 309.643C352.323 309.643 349.494 311.849 347.09 314.125C345.954 315.2 344.848 316.079 344.631 316.079C343.98 316.079 343.118 314.61 342.453 312.37C342.108 311.207 341.714 310.256 341.578 310.256C340.917 310.256 335.323 312.858 333.326 314.095C330.427 315.889 329.844 315.845 329.161 313.78C327.96 310.145 327.756 309.643 327.475 309.643C327.312 309.643 325.355 310.54 323.127 311.635C320.899 312.731 318.882 313.627 318.646 313.627C318.41 313.627 318.217 313.762 318.217 313.926C318.217 314.438 327.26 324.327 329.92 326.724C332.718 329.245 334.067 330.08 336.995 331.102C338.785 331.727 339.563 331.796 345.231 331.827C348.674 331.844 351.597 331.98 351.726 332.125C351.856 332.27 353.169 332.302 354.644 332.196C356.12 332.09 359.105 331.93 361.279 331.839ZM347.691 311.101C349.683 309.306 352.624 307.5 353.555 307.5C353.858 307.5 354.378 308.038 354.813 308.802C355.22 309.518 356.011 310.837 356.57 311.733L357.586 313.362L360.147 310.454C362.912 307.314 363.877 306.738 364.82 307.664C365.125 307.963 365.374 308.333 365.374 308.487C365.374 308.64 365.817 309.807 366.359 311.079L367.344 313.393L369.182 310.994C371.084 308.512 371.871 307.836 372.884 307.817C373.666 307.803 374.142 308.432 375.382 311.125C376.584 313.734 376.439 313.763 378.889 310.411C379.752 309.231 380.795 307.918 381.207 307.492C381.947 306.729 381.96 306.648 382.164 301.159L382.371 295.599L381.285 295.873C380.688 296.023 379.436 296.152 378.504 296.16C377.573 296.167 375.984 296.312 374.975 296.48C373.117 296.791 359.622 297.235 352.102 297.232C342.763 297.23 326.868 296.465 322.784 295.822C320.559 295.472 318.696 295.232 318.645 295.29C318.452 295.505 318.365 312.403 318.557 312.403C318.667 312.403 320.814 311.297 323.329 309.944C328.744 307.033 328.645 307.021 329.9 310.753C330.347 312.082 330.747 313.212 330.789 313.265C330.83 313.318 332.434 312.53 334.353 311.515C338.622 309.255 341.85 308.041 342.532 308.437C342.799 308.592 343.239 309.375 343.51 310.178C343.782 310.98 344.174 312.102 344.382 312.67C344.812 313.845 344.464 314.01 347.691 311.101ZM295.989 305.125C295.888 304.83 295.556 304.218 295.252 303.765C294.751 303.019 294.717 302.632 294.896 299.628C295.162 295.15 295.408 294.239 296.501 293.677L297.384 293.223L294.457 292.522C292.848 292.136 289.752 291.217 287.578 290.479C283.739 289.177 276.706 287.2 274.647 286.845C274.088 286.749 273.148 286.479 272.557 286.245C267.546 284.266 266.344 283.757 265.975 283.457C265.742 283.268 265.058 282.87 264.455 282.574C263.372 282.042 263.349 282.044 262.66 282.739C262.275 283.127 261.396 284.298 260.706 285.343C260.016 286.388 259.218 287.323 258.932 287.422C257.063 288.066 259.49 291.934 263.132 294.115C266.682 296.241 273.939 299.458 277.412 300.447C278.499 300.756 281.422 301.656 283.907 302.446C286.392 303.236 289.314 304.126 290.401 304.425C291.489 304.724 292.696 305.115 293.084 305.295C293.472 305.475 294.326 305.631 294.981 305.642C296.001 305.659 296.146 305.584 295.989 305.125ZM305.691 302.611C306.082 302.28 306.221 301.943 306.082 301.658C305.845 301.172 305.422 297.676 305.453 296.467C305.471 295.772 305.281 295.643 303.373 295.064C302.028 294.655 301.265 294.545 301.251 294.757C301.237 294.94 301.165 294.917 301.086 294.705C300.915 294.245 299.536 294.211 298.136 294.633C297.138 294.934 297.114 294.977 296.936 296.821C296.837 297.856 296.755 299.562 296.755 300.614C296.755 302.805 296.844 302.878 299.579 302.916C300.433 302.93 301.64 303.037 302.262 303.159C303.724 303.445 304.933 303.252 305.691 302.611ZM373.422 294.912C374.819 294.751 377.043 294.544 378.363 294.451C382.221 294.182 381.96 294.375 382.156 291.642C382.249 290.335 382.462 287.584 382.629 285.529C382.795 283.474 382.937 278.351 382.943 274.145L382.953 266.497L382.176 265.392C380.822 263.465 380.937 260.495 382.442 258.537C382.917 257.918 383.135 257.125 383.282 255.481L383.48 253.26L382.211 251.497C381.513 250.527 380.453 249.13 379.856 248.392L378.77 247.05L377.366 247.817C370.668 251.479 340.834 252.328 328.274 249.213L325.767 248.592L323.352 251.213L320.937 253.834L320.16 265.574C318.328 293.266 318.329 293.204 319.698 293.275C321.054 293.345 321.322 293.436 321.322 293.827C321.322 294.06 321.671 294.338 322.098 294.444C322.892 294.642 333.112 295.162 339.959 295.352C346.566 295.536 370.767 295.217 373.422 294.912ZM366.965 273.155C366.236 272.533 366.221 272.445 366.221 268.902C366.221 266.028 366.31 265.205 366.653 264.895C367.302 264.311 367.905 265.35 367.702 266.705L367.545 267.757L368.594 267.572C369.897 267.343 370.457 267.559 370.457 268.296C370.457 268.969 369.655 269.5 368.64 269.5C367.985 269.5 367.915 269.615 367.915 270.708C367.915 272.091 368.223 272.429 369.045 271.952C369.362 271.767 369.743 271.699 369.892 271.799C370.331 272.093 369.564 273.135 368.656 273.478C367.638 273.863 367.839 273.902 366.965 273.155ZM389.556 294.477C390.001 294.226 390.64 294.019 390.977 294.018C392.006 294.015 392.482 293.677 392.482 292.949C392.482 291.421 392.888 290.241 393.756 289.242C394.894 287.932 396.057 287.864 398.586 288.962C399.561 289.385 401.124 289.818 402.061 289.925C404.223 290.17 404.375 289.846 403.419 287.04C403.032 285.905 402.56 284.148 402.37 283.137C401.967 280.984 401.166 278.814 400.024 276.775C399.178 275.263 396.297 268.531 394.55 263.984C394 262.551 393.496 261.318 393.432 261.243C393.247 261.03 391.09 263.477 391.08 263.911C391.066 264.469 387.822 265.974 385.358 266.565L384.586 266.751L384.626 273.983C384.665 281.018 384.683 281.234 385.293 281.896C386.156 282.832 387.574 288.511 388.109 293.173C388.221 294.142 388.41 294.935 388.529 294.935C388.649 294.935 389.111 294.729 389.556 294.477ZM317.671 280.935C318.105 274.561 318.52 268.559 318.593 267.596C318.703 266.136 318.645 265.817 318.244 265.679C317.395 265.386 314.625 262.291 313.962 260.893L313.32 259.54L312.932 261.226C312.719 262.153 311.979 264.773 311.288 267.048C310.596 269.324 309.893 272.013 309.726 273.024C309.356 275.253 308.295 279.317 307.646 280.992C307.105 282.386 306.36 287.312 306.358 289.511C306.357 290.32 306.55 291.389 306.787 291.886C307.297 292.956 308.025 293.043 310.024 292.272C311.395 291.744 312.086 291.806 315.533 292.765C315.999 292.895 316.493 292.893 316.631 292.762C316.768 292.63 317.237 287.308 317.671 280.935ZM248.982 285.376C248.909 284.839 248.425 284.524 246.555 283.8C245.271 283.302 244.144 282.978 244.051 283.078C243.73 283.426 244.24 284.806 244.813 285.138C245.427 285.495 247.337 285.959 248.417 286.015C248.937 286.042 249.053 285.91 248.982 285.376ZM242.255 283.777C242.255 283.25 240.769 281.856 239.516 281.207C238.665 280.766 238.555 280.773 238.026 281.292C236.864 282.433 237.367 283.088 239.996 283.863C241.473 284.298 242.255 284.268 242.255 283.777ZM249.315 282.561C249.315 282.329 248.359 281.358 247.191 280.404C246.023 279.45 244.276 277.812 243.308 276.764C241.999 275.346 241.35 274.859 240.77 274.861C239.603 274.864 239.41 275.896 240.427 276.694C240.863 277.035 242.183 278.137 243.361 279.141C244.539 280.146 246.329 281.417 247.338 281.966C249.503 283.142 249.315 283.086 249.315 282.561ZM253.501 277.49L254.44 276.619L250.83 272.755L247.22 268.89L246.136 269.669C245.539 270.098 244.979 270.652 244.891 270.902C244.614 271.683 251.346 278.35 252.421 278.361C252.499 278.361 252.985 277.97 253.501 277.49ZM246.209 277.008C245.844 276.587 245.409 276.246 245.242 276.251C244.932 276.262 246.378 277.774 246.697 277.774C246.793 277.774 246.574 277.429 246.209 277.008ZM257.222 275.508C257.222 275.442 257.024 275.306 256.783 275.205C256.532 275.101 256.419 275.152 256.518 275.326C256.683 275.617 257.222 275.757 257.222 275.508ZM238.964 273.43L239.659 272.319L238.099 271.153L236.539 269.987L235.726 270.974C235.279 271.517 234.915 272.131 234.918 272.339C234.921 272.641 238.012 274.745 238.215 274.583C238.245 274.56 238.582 274.04 238.964 273.43ZM254.011 273.101C253.76 272.722 253.044 271.515 252.418 270.419C250.803 267.59 250.531 267.253 250.034 267.46C249.238 267.792 249.575 268.465 251.882 271.14C254.123 273.74 254.916 274.47 254.011 273.101ZM259.409 273.407C259.562 273.197 259.914 272.266 260.19 271.339C260.467 270.412 260.751 269.481 260.823 269.27C260.9 269.042 260.718 268.887 260.371 268.887C259.74 268.887 259.387 269.341 257.934 272.028L256.98 273.79H258.055C258.646 273.79 259.255 273.618 259.409 273.407ZM245.306 267.705C245.569 267.524 245.246 267.132 244.174 266.331C242.54 265.11 240.857 264.837 239.856 265.631C239.369 266.017 239.456 266.093 240.895 266.547C241.758 266.819 242.623 267.25 242.818 267.505C243.197 268.001 244.701 268.122 245.306 267.705ZM248.735 265.686C249.561 264.732 249.373 263.781 248.039 262.18C247.071 261.016 247.046 261.007 245.787 261.32C245.087 261.493 244.514 261.742 244.514 261.873C244.514 262.003 245.213 262.93 246.068 263.931C246.922 264.932 247.621 265.905 247.621 266.093C247.621 266.644 248.039 266.491 248.735 265.686ZM387.56 264.262C389.161 263.725 389.749 263.322 391.153 261.798C392.714 260.105 392.816 259.908 392.613 258.993C392.494 258.451 392.383 257.611 392.368 257.125L392.341 256.242L389.882 256.415C388.094 256.541 387.053 256.788 386.07 257.319L384.717 258.051L384.636 261.018C384.579 263.109 384.663 264.118 384.918 264.433C385.386 265.008 385.319 265.013 387.56 264.262ZM319.03 259.923L319.064 257.549H317.634C316.847 257.549 315.957 257.691 315.657 257.866C314.521 258.526 315.336 260.781 317.455 262.835L318.64 263.985L318.819 263.142C318.917 262.678 319.011 261.23 319.03 259.923ZM382.901 261.431C382.542 261.042 382.474 262.682 382.811 263.576C382.967 263.99 383.046 263.826 383.112 262.948C383.162 262.293 383.067 261.611 382.901 261.431ZM393.971 257.568C394.058 257.208 393.944 256.905 393.681 256.795C393.112 256.558 393.037 256.674 393.232 257.485C393.434 258.32 393.781 258.359 393.971 257.568ZM366.464 248.54C370.94 247.955 374.97 247.094 376.51 246.393C377.571 245.91 377.595 245.868 377.057 245.459C375.806 244.508 368.729 243.147 365.374 243.212C364.52 243.229 358.611 243.222 352.243 243.202C345.875 243.178 339.621 243.159 338.345 243.155C336.186 243.152 329.235 244.259 326.957 244.972C325.026 245.576 324.342 246.823 325.942 246.823C326.29 246.823 326.696 246.955 326.845 247.117C327.312 247.623 331.416 248.262 339.536 249.092C340.157 249.155 345.621 249.168 351.678 249.119C359.597 249.056 363.751 248.894 366.464 248.54ZM361.42 241.613C361.42 241.445 361.666 241.307 361.965 241.307C362.56 241.307 362.555 241.337 363.131 234.758C363.292 232.926 363.386 231.405 363.34 231.379C363.144 231.269 343.95 231.828 342.899 231.975L341.744 232.136L341.839 236.951C341.891 239.6 341.934 241.801 341.935 241.843C341.936 241.885 346.32 241.92 351.678 241.92C357.985 241.92 361.42 241.811 361.42 241.613ZM375.79 228.252L385.501 227.717L387.015 226.17C387.848 225.319 388.529 224.453 388.529 224.245C388.529 224.038 389.054 223.413 389.695 222.858C390.336 222.302 391.893 220.594 393.155 219.061C395.368 216.375 396.42 214.493 398.253 209.936C398.925 208.266 399.999 202.767 399.78 202.119C399.727 201.961 398.92 202.165 397.987 202.572L396.29 203.312L396.248 205.685C396.204 208.203 395.742 209.802 394.572 211.484C394.194 212.029 393.894 212.881 393.894 213.415C393.894 215.001 393.134 216.184 389.985 219.499C386.677 222.982 383.895 224.822 381.316 225.23C380.546 225.352 379.434 225.658 378.845 225.91C377.261 226.587 373.688 226.308 372.335 225.4C371.164 224.615 370.234 224.704 368.339 225.783C367.355 226.342 366.731 226.424 363.512 226.416C360.022 226.405 359.744 226.36 358.526 225.586C357.817 225.135 357.001 224.414 356.713 223.985L356.189 223.205L355.023 224.421C353.687 225.814 352.698 226.108 350.086 225.888C349.098 225.805 345.939 225.585 343.066 225.4C340.192 225.214 337.243 224.913 336.511 224.73C334.989 224.348 332.716 222.38 332.445 221.207C332.294 220.555 332.115 220.468 330.928 220.468C329.377 220.468 327.536 219.835 326.49 218.942C326.091 218.602 325.589 218.323 325.376 218.323C324.565 218.323 322.466 217.015 322.285 216.396C322.021 215.495 321.07 214.726 319.926 214.49C319.392 214.379 317.914 213.755 316.643 213.103C314.082 211.789 313.138 210.745 311.733 207.672C310.803 205.637 310.457 205.452 307.591 205.452C306.519 205.452 306.074 205.571 306.074 205.858C306.074 206.364 307.458 210.703 307.752 211.121C307.871 211.29 308.105 211.868 308.271 212.406C308.698 213.784 311.85 218.705 313.698 220.88C314.552 221.886 316.052 223.367 317.032 224.171C318.527 225.4 319.23 225.741 321.409 226.296C324.772 227.154 328.824 227.677 331.488 227.598C332.653 227.564 334.923 227.781 336.533 228.081C340.874 228.89 362.497 228.984 375.79 228.252ZM347.065 223.102C348.204 222.866 349.963 222.37 350.972 222.001C352.79 221.336 356.834 218.659 357.269 217.832C357.394 217.596 357.682 217.404 357.91 217.404C358.22 217.404 358.306 217.725 358.249 218.685C358.182 219.821 358.252 219.991 358.879 220.187C360.005 220.538 367.471 220.5 369.697 220.132C371.744 219.794 375.021 218.441 376.459 217.342C377.641 216.438 378.222 216.713 378.222 218.176V219.396L381.573 219.318C384.194 219.256 385.202 219.106 386.198 218.628C386.898 218.292 387.825 218.017 388.257 218.017C389.299 218.017 391.681 215.96 392.313 214.513C393.143 212.616 392.992 212.496 389.659 212.409C386.012 212.314 384.467 211.648 383.483 209.748L382.851 208.527L380.359 209.886C377.544 211.419 375.043 212.022 372.285 211.832C370.904 211.736 370.316 211.544 369.802 211.021C369.175 210.381 369.103 210.37 368.734 210.856C368.245 211.502 365.15 213.059 363.256 213.612C362.479 213.839 360.695 214.114 359.291 214.223C357.171 214.387 356.576 214.33 355.789 213.888L354.84 213.356L353.521 214.913C352.795 215.77 351.739 216.68 351.173 216.937C349.977 217.479 346.435 217.566 345.972 217.065C345.744 216.817 345.178 216.935 343.869 217.501C341.495 218.529 340.665 218.734 339.818 218.504C338.893 218.252 338.885 217.404 339.808 217.404C340.975 217.404 343.688 216.169 343.526 215.712C343.394 215.339 342.149 213.227 341.538 212.343C341.167 211.804 341.549 210.968 342.166 210.968C342.457 210.968 342.926 211.244 343.207 211.581C343.488 211.918 343.867 212.194 344.049 212.194C344.231 212.194 344.688 212.558 345.064 213.003C346.63 214.854 349.216 216.112 349.702 215.259C349.798 215.09 350.132 214.952 350.444 214.952C351.702 214.952 354.253 212.445 354.653 210.815C354.736 210.478 355.085 210.066 355.429 209.9C355.774 209.733 356.056 209.492 356.056 209.363C356.056 209.235 356.25 209.129 356.488 209.129C357.256 209.129 357.266 210.028 356.512 211.104C356.106 211.681 355.775 212.285 355.775 212.447C355.775 212.89 356.52 213.114 357.986 213.111C361.844 213.104 366.328 211.437 368.548 209.185C369.897 207.816 370.017 207.823 370.234 209.28C370.52 211.21 375.034 210.961 379.258 208.783C380.62 208.08 382.016 207.181 382.359 206.785L382.983 206.064L380.321 206.238C378.857 206.333 376.809 206.541 375.77 206.698C374.73 206.856 372.229 206.984 370.211 206.984C367.986 206.984 365.729 207.17 364.476 207.457C363.34 207.717 360.25 208.041 357.61 208.178C351.527 208.492 338.525 208.306 338.15 207.9C337.997 207.733 336.849 207.586 335.598 207.573C334.348 207.559 332.245 207.445 330.925 207.319C329.605 207.193 328.484 207.122 328.433 207.162C328.383 207.201 328.718 207.797 329.177 208.485C329.945 209.635 332.616 211.887 333.212 211.887C333.352 211.887 333.466 212.163 333.466 212.5C333.466 213.029 333.655 213.113 334.839 213.113C336.134 213.113 337.932 212.349 339.884 210.968C340.387 210.612 340.582 210.6 340.866 210.908C341.621 211.727 339.748 213.42 337.196 214.225C334.861 214.962 332.947 214.599 331.271 213.102C330.537 212.447 329.55 211.572 329.076 211.157C328.603 210.743 327.858 209.635 327.419 208.694L326.622 206.985L325.689 207.874C324.708 208.808 321.747 209.742 319.765 209.742C318.946 209.742 318.76 209.636 318.835 209.212C318.903 208.828 319.549 208.515 321.169 208.08C323.788 207.377 323.503 207.173 319.423 206.835C318.061 206.722 316.725 206.563 316.453 206.48C315.85 206.297 315.804 207.128 316.29 209.416C316.583 210.79 316.767 211.064 317.843 211.716C319.002 212.419 319.065 212.427 319.065 211.866C319.065 210.899 319.826 211.188 321.036 212.612C322.46 214.288 324.956 215.535 327.734 215.958C329.655 216.25 329.956 216.219 331.394 215.572C332.695 214.986 333.003 214.939 333.209 215.293C333.346 215.527 333.46 215.876 333.462 216.069C333.464 216.262 333.875 216.882 334.375 217.448C334.875 218.014 335.507 218.999 335.779 219.639C336.367 221.021 337.648 221.711 340.739 222.313C341.866 222.533 342.73 222.775 342.66 222.852C342.589 222.928 342.112 223.099 341.599 223.231C339.853 223.679 344.851 223.562 347.065 223.102ZM364.235 218.353C362.982 218.079 362.55 217.793 362.55 217.237C362.55 216.888 362.878 216.837 364.174 216.982C365.442 217.123 366.169 217.016 367.492 216.494C369.915 215.537 370.739 215.397 370.739 215.942C370.739 217.387 366.684 218.89 364.235 218.353ZM381.611 216.817C380.123 216.249 379.622 215.325 380.905 215.517C381.293 215.575 382.723 215.636 384.082 215.651C386.704 215.682 387.153 215.992 385.925 216.926C385.116 217.541 383.394 217.498 381.611 216.817ZM336.3 222.367C334.938 221.347 334.019 220.398 334.057 220.053C334.078 219.86 334.078 219.495 334.054 219.242C334.02 218.863 333.964 218.872 333.736 219.297C333.31 220.089 333.97 221.314 335.282 222.167C336.578 223.01 337.365 223.165 336.3 222.367ZM393.112 210.418C393.83 209.753 394.741 206.864 394.741 205.253V203.852L393.683 204.058C393.051 204.182 392.299 204.635 391.819 205.181C390.929 206.194 390.353 206.199 390.387 205.191C390.414 204.433 390.131 204.393 387.939 204.844C386.208 205.2 384.293 206.911 384.293 208.102C384.293 209.091 385.414 210.361 386.557 210.666C388.192 211.103 392.55 210.938 393.112 210.418ZM314.612 207.685C314.521 206.739 314.338 206.341 313.93 206.201C313.117 205.921 313.032 206.187 313.571 207.339C314.071 208.407 314.586 209.205 314.681 209.06C314.712 209.014 314.681 208.395 314.612 207.685ZM339.651 202.273C340.594 201.454 341.077 199.525 341.079 196.565C341.081 193.141 340.779 192.311 339.313 191.705C337.816 191.087 337.084 191.534 336.173 193.623C334.853 196.651 334.854 200.05 336.174 201.753C337.133 202.99 338.577 203.206 339.651 202.273ZM366.687 201.736C367.197 201.277 367.915 198.573 367.915 197.112C367.915 195.721 367.282 193.94 366.441 192.968C365.851 192.288 364.763 192.078 363.832 192.466C363.207 192.726 362.408 194.518 361.976 196.63C361.662 198.167 361.678 198.551 362.11 199.778C362.88 201.967 365.288 202.997 366.687 201.736ZM343.772 188.576C346.101 188.403 352.391 188.262 357.75 188.264C364.812 188.267 368.229 188.147 370.174 187.827C371.804 187.559 376.044 187.329 380.977 187.241C387.622 187.122 389.391 186.998 390.719 186.56C392.73 185.896 392.635 185.986 392.264 185.103C392.075 184.654 391.613 184.283 391.086 184.157C390.367 183.986 390.072 183.621 389.366 182.033C388.129 179.249 385.944 177.262 384.116 177.26C383.398 177.259 383.166 177.084 382.877 176.327C382.312 174.848 380.967 173.001 379.979 172.346C378.451 171.335 378.513 171.671 380.116 173.088C381.018 173.886 381.855 174.956 382.171 175.716C382.667 176.91 382.673 177.055 382.247 177.818C381.733 178.74 381.02 179.324 380.757 179.04C380.662 178.936 380.744 178.571 380.941 178.23C381.24 177.709 381.209 177.43 380.751 176.506C379.346 173.676 376.115 172.445 371.39 172.939C370.023 173.082 368.3 173.462 367.562 173.784L366.22 174.369L367.056 175.431C367.516 176.015 367.897 176.331 367.904 176.134C367.921 175.552 371.802 174.732 373.477 174.957C375.306 175.202 377.386 176.922 378.472 179.086L379.208 180.555L380.551 180.423C381.289 180.351 382.656 180.163 383.589 180.005C385.887 179.616 387.118 180.022 388.341 181.572C389.344 182.844 390.133 185.161 389.843 185.982C389.751 186.24 389.427 186.452 389.122 186.452C388.697 186.452 388.572 186.251 388.589 185.597C388.62 184.447 387.778 182.594 386.876 181.824C386.194 181.243 385.895 181.212 382.746 181.398C380.879 181.508 379.133 181.665 378.865 181.745C378.516 181.85 378.104 181.431 377.41 180.265C376.878 179.37 375.986 178.163 375.427 177.582C374.476 176.594 374.29 176.527 372.505 176.521C371.456 176.518 370.009 176.62 369.289 176.747L367.981 176.979L368.826 179.163C369.754 181.559 370.094 184.175 369.694 185.839C369.486 186.704 369.282 186.931 368.639 187.012C367.884 187.108 367.856 187.068 368.089 186.246C369.294 182.004 366.35 174.995 362.892 173.871C361.852 173.532 361.549 173.547 360.72 173.976C359.712 174.498 357.75 177.31 357.75 178.232C357.75 178.955 357.315 179.177 356.918 178.658C356.116 177.609 357.947 173.944 359.88 172.731C361.227 171.884 362.579 171.994 364.597 173.114C365.508 173.619 365.939 173.734 365.939 173.47C365.939 172.908 367.877 171.811 369.564 171.418L371.017 171.08L370.137 169.691C369.505 168.695 368.823 168.087 367.724 167.541C365.184 166.279 366.488 165.558 369.249 166.698C370.585 167.249 372.189 169.196 372.252 170.344C372.288 171.001 372.423 171.073 373.653 171.083C374.401 171.09 375.714 171.252 376.57 171.445C377.426 171.638 378.191 171.725 378.271 171.638C378.438 171.457 376.489 170.827 375.751 170.825C375.48 170.824 375.257 170.692 375.257 170.532C375.257 170.008 373.523 167.437 372.843 166.954C372.469 166.688 371.934 166.566 371.617 166.675C371.279 166.791 370.517 166.575 369.697 166.128C367.743 165.063 364.937 164.579 363.918 165.131C363.181 165.53 363.059 165.497 362.063 164.636C360.487 163.274 359.78 162.96 357.75 162.721L355.914 162.505L356.832 163.537C357.337 164.105 357.75 164.781 357.75 165.04C357.75 165.299 358.258 165.954 358.879 166.496C359.5 167.037 360.009 167.67 360.009 167.902C360.009 168.211 360.407 168.316 361.491 168.292C363.217 168.255 365.656 169.284 365.656 170.049C365.656 170.859 364.872 170.928 363.41 170.245C361.907 169.543 360.561 169.418 359.727 169.903C359.094 170.27 358.314 169.579 358.314 168.651C358.314 167.415 354.85 166.063 353.577 166.802C353.266 166.983 352.625 167.763 352.154 168.536C351.398 169.774 351.332 170.052 351.597 170.878C351.964 172.02 351.723 177.228 351.26 178.167C351.081 178.53 350.784 178.771 350.6 178.702C350.361 178.613 350.292 177.539 350.358 174.93L350.451 171.282L349.583 169.985C348.666 168.612 347.202 167.465 345.33 166.652C343.909 166.035 343.747 165.154 345.113 165.47C346.604 165.815 348.814 167.06 349.683 168.044L350.492 168.96L351.258 167.648C352.309 165.85 353.378 165 354.589 165H355.589L354.928 164.237C353.894 163.042 352.101 162.242 350.459 162.242C349.099 162.242 348.609 162.56 349.278 163.008C349.697 163.29 349.619 164.382 349.166 164.571C348.949 164.661 348.028 164.332 347.119 163.838C344.89 162.63 342.669 162.364 341.328 163.144C340.519 163.614 340.105 163.675 339.222 163.453C338.618 163.301 337.259 163.173 336.203 163.169C334.138 163.162 333.019 163.599 331.707 164.931C331.082 165.565 330.553 165.747 328.883 165.901C326.509 166.12 324.295 167.317 323.808 168.644C323.434 169.663 323.003 171.41 322.931 172.202C322.894 172.605 322.633 172.847 322.169 172.909C321.781 172.961 320.594 173.357 319.531 173.789C317.791 174.497 317.503 174.74 316.62 176.237C315.733 177.742 314.827 179.98 314.827 180.667C314.827 180.815 315.018 180.935 315.251 180.935C315.934 180.935 315.742 181.824 314.731 183.346C313.385 185.371 313.272 185.838 314.13 185.838C314.513 185.838 314.827 185.976 314.827 186.145C314.827 186.646 312.573 186.516 312.392 186.005C312.181 185.407 312.746 183.613 313.453 182.638C313.872 182.06 313.975 181.608 313.839 180.939C313.599 179.753 314.306 177.203 315.387 175.349C316.283 173.813 318.269 172.469 320.685 171.763C321.832 171.428 321.875 171.369 322.054 169.91C322.208 168.65 322.476 168.126 323.686 166.726C325.495 164.631 326.645 163.997 328.596 164.016C329.875 164.03 330.253 163.893 331.048 163.135C331.565 162.643 332.458 162.027 333.032 161.766C334.15 161.26 337.117 161.1 338.974 161.447C339.757 161.593 340.444 161.506 341.193 161.166C342.318 160.656 344.472 160.735 346.335 161.353C346.972 161.565 347.478 161.518 348.232 161.176C349.772 160.477 352.848 160.564 354.189 161.344C354.965 161.796 355.368 161.884 355.583 161.651C356.403 160.761 360.865 161.561 362.623 162.914C363.231 163.382 363.977 163.536 366.012 163.613C367.885 163.684 369.005 163.893 369.985 164.356C370.736 164.71 371.702 165 372.132 165C373.2 165 374.612 166.096 375.867 167.898C376.726 169.131 377.161 169.472 378.274 169.783C380.309 170.351 380.988 170.681 381.972 171.579C382.89 172.417 384.575 174.914 384.575 175.435C384.575 175.595 384.734 175.727 384.928 175.729C385.608 175.736 388.151 177.187 389.153 178.141C390.174 179.114 391.47 181.626 391.276 182.257C391.218 182.445 391.561 182.811 392.037 183.07C392.513 183.329 393.157 183.983 393.469 184.525C393.954 185.369 394.2 185.51 395.196 185.521C395.834 185.527 396.94 185.446 397.652 185.34C398.924 185.15 398.945 185.13 398.782 184.191C398.409 182.044 397.535 180.294 395.063 176.741C388.386 167.149 379.331 160.816 367.733 157.625C363.015 156.327 358.922 155.807 353.426 155.807C346.327 155.807 341.344 156.604 335.083 158.743C333.339 159.338 331.453 159.934 330.894 160.065C329.52 160.389 323.688 163.742 321.228 165.622C316.225 169.448 311.102 175.264 308.384 180.205C307.065 182.602 305.622 186.37 305.905 186.678C306.004 186.785 311.133 187.049 317.304 187.263C327.99 187.635 332.438 187.95 335.582 188.558C337.536 188.936 338.887 188.94 343.772 188.576ZM369.892 186.662C369.892 186.441 370.341 186.027 370.89 185.743C372.399 184.962 375.346 185.06 377.552 185.964C379.219 186.647 379.295 186.717 378.579 186.916C378.154 187.033 376.756 186.972 375.473 186.78C373.832 186.534 372.846 186.525 372.153 186.749C370.807 187.182 369.892 187.146 369.892 186.662ZM318.217 186.222C318.22 184.627 321.202 181.799 323.487 181.223C324.976 180.848 327.462 180.868 327.683 181.258C328.04 181.883 327.226 182.386 325.55 182.576C324.615 182.682 323.464 182.985 322.993 183.249C321.818 183.909 319.91 185.819 319.91 186.336C319.91 186.603 319.596 186.76 319.063 186.76C318.444 186.76 318.216 186.614 318.217 186.222ZM353.06 185.97C352.861 185.11 353.344 184.29 353.76 184.782C353.895 184.942 354.088 185.452 354.189 185.916C354.342 186.62 354.279 186.759 353.807 186.759C353.436 186.759 353.18 186.488 353.06 185.97ZM359.161 185.37C359.161 184.392 359.292 183.927 359.604 183.797C360.239 183.533 360.595 184.05 360.774 185.496C360.928 186.742 360.919 186.759 360.046 186.759C359.185 186.759 359.161 186.722 359.161 185.37ZM335.086 185.406C334.373 183.783 331.551 180.123 330.41 179.341C327.297 177.207 326.832 176.993 325.276 176.977C323.557 176.959 320.984 178.148 319.574 179.614C318.823 180.394 317.934 180.424 317.934 179.668C317.934 179.065 320.252 176.854 321.687 176.087C322.42 175.696 323.718 175.297 324.571 175.202C326.115 175.029 326.123 175.023 326.123 173.989C326.123 173.318 326.283 172.883 326.575 172.761C327.148 172.522 327.525 173.159 327.53 174.375C327.534 175.085 327.711 175.409 328.241 175.671C328.629 175.863 328.952 176.195 328.959 176.41C328.965 176.624 329.742 177.213 330.685 177.719C332.619 178.755 335.246 181.772 336.438 184.325C337.324 186.222 337.313 186.452 336.341 186.452C335.714 186.452 335.449 186.231 335.086 185.406ZM345.827 184.72C345.015 183.228 341.526 181.392 340.065 181.689C339.325 181.84 339.112 181.78 339.112 181.42C339.112 180.852 339.97 180.323 340.891 180.323C341.454 180.323 341.662 180.063 342.053 178.868C342.315 178.067 342.705 176.998 342.919 176.493C343.821 174.367 343.688 173.069 342.413 171.521C341.879 170.873 341.877 170.829 342.362 170.627C342.865 170.417 343.857 171.374 344.656 172.842C344.963 173.406 345.007 173.408 345.83 172.891C346.656 172.372 347.584 172.433 347.584 173.006C347.584 173.391 345.857 174.498 345.254 174.499C344.919 174.5 344.76 174.741 344.76 175.244C344.76 175.653 344.324 176.895 343.792 178.003C342.393 180.917 342.398 180.998 344.032 181.622C345.921 182.344 347.019 183.521 347.019 184.824C347.019 186.149 346.583 186.112 345.827 184.72ZM352.29 179.506C352.046 179.242 352.044 175.891 352.288 175.627C352.905 174.957 353.742 177.457 353.398 178.942C353.229 179.674 352.695 179.946 352.29 179.506ZM334.2 178.609C333.99 178.017 334.504 174.338 334.911 173.512C335.135 173.058 335.09 172.781 334.723 172.341C334.086 171.577 330.512 169.705 329.088 169.389C328.375 169.23 327.958 168.968 327.958 168.678C327.958 168.322 328.324 168.22 329.582 168.226C330.86 168.233 331.205 168.133 331.205 167.761C331.205 166.836 332.592 165.057 333.594 164.699C334.138 164.504 334.713 164.431 334.871 164.538C335.304 164.828 335.217 165.614 334.751 165.614C333.94 165.614 332.85 166.99 332.631 168.289C332.424 169.519 332.449 169.581 333.268 169.891C333.737 170.068 334.542 170.562 335.058 170.989C335.928 171.709 336.042 171.731 336.652 171.298C337.013 171.041 337.937 170.795 338.705 170.751C339.933 170.68 340.101 170.744 340.101 171.278C340.101 171.735 339.855 171.929 339.112 172.061C337.086 172.422 335.724 174.123 335.724 176.291C335.724 178.01 335.393 179.098 334.871 179.098C334.597 179.098 334.295 178.878 334.2 178.609ZM338.743 167.444C338.343 167.102 337.546 166.61 336.971 166.349C336.072 165.942 335.982 165.815 336.324 165.443C337.147 164.551 340.242 166.044 340.242 167.334C340.242 168.232 339.712 168.271 338.743 167.444ZM50.377 336.325C50.0664 336.189 41.8887 336.064 32.2044 336.049C18.9295 336.029 14.4959 335.931 14.1872 335.653C13.1295 334.7 13.1242 334.666 12.4101 324.201C12.2606 322.01 12.0112 318.632 11.8559 316.693C11.7007 314.755 11.4855 310.88 11.3778 308.082C11.0876 300.542 11.1603 300.452 17.5276 300.452C19.6286 300.452 22.3245 300.362 23.5185 300.252L25.6893 300.053L25.5309 295.732C25.4438 293.355 25.2493 288.791 25.0987 285.589C24.4748 272.321 23.4572 245.148 23.251 236.25C23.1025 229.839 23.1454 228.298 23.5137 226.805C24.0483 224.638 25.1887 223.058 26.5158 222.644C27.0594 222.474 32.5234 222.19 38.6582 222.013C59.6496 221.408 62.1036 221.315 62.1907 221.122C62.2823 220.918 61.7965 209.252 61.2318 198.097C60.8564 190.682 60.5207 182.194 60.1652 171.13C60.0325 167 59.8351 163.402 59.7264 163.135C59.5516 162.704 57.9679 162.623 45.9577 162.436C35.4325 162.272 32.219 162.132 31.6396 161.811C31.2288 161.584 30.4747 161.466 29.9638 161.55C28.774 161.745 28.09 161.095 27.6935 159.392C27.5287 158.685 27.2483 154.175 27.0704 149.372C26.8924 144.568 26.6252 137.949 26.4765 134.662C26.2151 128.885 25.9462 121.941 25.3726 106.162C25.2225 102.033 25.028 94.0733 24.9404 88.4745L24.781 78.2948L23.7423 78.1027C20.9157 77.5801 19.2613 76.3654 18.3425 74.1382C17.5499 72.2169 17.4849 71.5207 17.8991 69.3886C18.2588 67.5374 18.2477 67.3298 17.7416 66.4412C17.0778 65.2757 17.0212 62.8665 17.6279 61.6039C17.8629 61.1149 17.9746 60.4391 17.876 60.1022C17.7775 59.7652 16.5043 58.2017 15.0468 56.6276C13.5892 55.0535 12.3967 53.6131 12.3967 53.4267C12.3967 53.2403 12.1524 52.7155 11.8539 52.2605C11.3393 51.4762 10.3714 48.9304 9.57405 46.264C9.33844 45.476 9.21422 43.3281 9.21962 40.135C9.2275 35.3828 9.32423 34.6053 10.3635 30.926C11.0512 28.4912 13.6151 24.2177 15.4524 22.444C16.9083 21.0385 19.2832 19.4527 20.8823 18.8184C22.1002 18.3353 23.1274 18.2111 25.9054 18.2111C29.3734 18.2111 29.4134 18.2193 31.6982 19.3947C35.9172 21.5651 39.3126 25.8024 41.1862 31.2353C41.8427 33.1389 42.0683 34.2552 42.3743 37.1122C42.9103 42.1162 42.3853 45.8757 40.3755 51.4251C39.2285 54.5919 35.3132 59.2203 32.5322 60.6969L31.0339 61.4924V63.4545C31.0339 64.8402 30.8265 65.9703 30.3279 67.302C29.8178 68.6643 29.6219 69.7575 29.6219 71.2423C29.6219 73.5048 29.1838 74.9426 28.0482 76.4072C27.5061 77.1064 27.3538 77.5586 27.4938 78.0531C27.7012 78.7855 28.1092 84.9183 28.4768 92.8316C28.6021 95.5284 28.9053 101.182 29.1506 105.396C29.3958 109.61 29.736 115.884 29.9065 119.34C30.077 122.795 30.3449 128.104 30.5019 131.138C30.6589 134.172 30.9059 139.412 31.0508 142.783C31.3443 149.609 31.7919 158.412 31.8456 158.412C31.9687 158.412 41.4283 158.575 49.7556 158.722L59.5822 158.894L59.4532 154.209C59.3823 151.633 59.1663 145.376 58.9732 140.306C58.7802 135.236 58.7084 130.715 58.8138 130.259C58.9323 129.747 59.2988 129.309 59.7736 129.113C60.1961 128.939 60.7326 128.61 60.9658 128.382C61.277 128.078 62.8554 127.92 66.8963 127.79C74.8672 127.532 97.4105 127.011 112.925 126.726C130.393 126.405 152.783 125.863 158.67 125.618C164.899 125.358 192.915 124.818 207.702 124.672C216.94 124.581 219.662 124.641 219.874 124.935C220.458 125.745 220.794 128.351 220.794 132.067V135.943L223.689 135.774C227.396 135.556 229.322 135.284 229.738 134.918C230.186 134.523 231.276 135.28 231.177 135.917C231.136 136.186 231.292 136.655 231.525 136.959C231.963 137.53 231.982 137.911 232.526 156.803C232.664 161.589 232.826 163.784 233.044 163.804C234.183 163.909 244.446 163.724 246.039 163.569L247.987 163.38L247.802 159.057C247.62 154.818 247.185 138.957 246.818 123.17L246.632 115.202L240.406 115.049C234.989 114.916 234.078 114.823 233.389 114.333C232.731 113.864 232.632 113.632 232.799 112.953C233.194 111.351 233.273 108.121 232.965 106.162C232.793 105.067 232.388 101.55 232.064 98.3476C231.741 95.1452 231.35 91.2839 231.196 89.767C231.041 88.2501 230.85 85.0418 230.77 82.6374C230.641 78.7439 230.566 78.2316 230.086 77.9532C229.722 77.7418 229.548 77.3102 229.548 76.6187C229.548 75.6753 229.641 75.57 230.748 75.2486C231.51 75.0276 237.827 74.7883 248.044 74.5934C256.897 74.4245 266.886 74.1537 270.243 73.9917C277.995 73.6174 278.965 73.861 278.965 76.1818C278.965 77.2049 278.836 77.4622 278.101 77.9063C277.318 78.3797 277.25 78.5425 277.364 79.6542C277.434 80.3283 277.631 81.4316 277.803 82.1058C278.258 83.8919 279.15 88.7997 279.502 91.4525C279.914 94.5569 280.038 96.1829 280.353 102.638C280.675 109.241 280.421 113.206 279.601 114.387C279.081 115.135 278.869 115.202 277.042 115.202C274.906 115.202 274.699 115.315 273.913 116.905C273.632 117.475 273.082 118.2 272.691 118.516C272.042 119.042 271.911 119.052 271.167 118.632C270.719 118.379 269.686 117.401 268.871 116.458L267.39 114.743H259.082C253.884 114.743 250.739 114.856 250.68 115.044C250.628 115.21 250.68 117.244 250.795 119.565C251.166 127.071 251.561 139.449 251.806 151.274L252.046 162.83L252.798 164.008C253.212 164.656 253.551 165.345 253.551 165.539C253.551 166.202 252.91 167.418 252.454 167.621C252.203 167.732 247.794 167.8 242.657 167.772C234.514 167.728 233.27 167.783 232.952 168.198C232.726 168.494 232.668 168.936 232.799 169.366C233.006 170.04 233.223 179.057 233.779 210.049C233.929 218.392 234.159 229.286 234.29 234.258C234.484 241.56 234.458 243.429 234.157 243.977C233.952 244.351 233.781 244.902 233.778 245.203C233.763 246.51 232.889 247.091 230.254 247.546C228.857 247.787 226.887 248.214 225.877 248.495C224.868 248.776 223.47 249.144 222.771 249.312C221.131 249.708 214.491 250.142 204.558 250.503C200.209 250.661 195.571 250.919 194.251 251.076C192.93 251.233 185.243 251.509 177.167 251.689C161.527 252.038 159.956 252.123 159.36 252.66C159.095 252.899 156.194 252.997 149.859 252.984C144.843 252.974 138.579 253.117 135.939 253.302C133.299 253.487 128.978 253.736 126.338 253.855C123.698 253.973 120.33 254.244 118.855 254.457C115.11 254.997 93.0714 254.791 91.9889 254.206C91.1662 253.762 90.9426 253.353 90.0461 250.653C89.5841 249.262 89.4245 248.031 89.3906 245.597C89.366 243.827 89.454 242.054 89.5864 241.656L89.8269 240.934L76.032 241.043C68.4449 241.104 62.0784 241.042 61.8842 240.905C61.2846 240.484 61.4855 239.477 62.244 239.102C63.2244 238.618 63.3609 237.715 62.971 234.292C62.7865 232.672 62.6094 229.899 62.5775 228.129L62.5196 224.912L53.9069 224.929C49.17 224.939 41.2585 225.058 36.3259 225.194L27.3575 225.44L27.195 226.248C27.1057 226.692 26.8716 227.538 26.675 228.128C26.3862 228.994 26.3868 230.115 26.6777 233.95C27.158 240.283 27.6514 248.296 27.9418 254.482C28.0724 257.263 28.3098 261.952 28.4694 264.902C28.8887 272.651 29.28 280.841 29.6409 289.417C29.8146 293.547 30.0426 297.615 30.1475 298.458L30.3383 299.99L32.1687 299.966C33.1754 299.952 38.0353 299.828 42.9684 299.687L51.9378 299.43L52.64 300.146C53.0262 300.54 53.3422 301.045 53.3422 301.268C53.3422 301.491 53.576 301.674 53.8617 301.674C54.2189 301.674 54.478 302.034 54.6906 302.824C55.1395 304.492 55.9675 316.257 56.4104 327.263C56.5461 330.634 56.7534 333.641 56.8712 333.945C57.0048 334.29 56.8884 334.895 56.5615 335.554L56.0375 336.61L53.4897 336.589C52.0884 336.579 50.6878 336.458 50.3771 336.321L50.377 336.325ZM53.2243 331.912C53.1283 331.379 52.914 324.876 52.7479 317.459C52.5263 307.56 52.3534 303.871 52.0974 303.582C51.8164 303.264 48.1147 303.229 33.0345 303.402C16.6389 303.59 14.2999 303.674 14.155 304.084C14.064 304.341 14.1557 306.077 14.3587 307.941C14.9906 313.745 15.6402 321.606 16.0316 328.185C16.162 330.376 16.3641 332.411 16.4807 332.705C16.6787 333.206 17.5802 333.24 30.0051 333.211C37.3269 333.194 44.9694 333.083 46.9884 332.964C49.5541 332.813 50.9145 332.855 51.5065 333.105C52.7608 333.635 53.4485 333.157 53.2243 331.912ZM24.6803 320.471C22.5021 320.329 21.7153 319.896 21.7153 318.839C21.7153 318.111 21.868 317.986 23.1487 317.665C23.9371 317.468 25.4938 317.299 26.6079 317.29C27.7221 317.279 29.6502 317.141 30.8927 316.981C32.1352 316.82 34.6766 316.546 36.5403 316.372C38.404 316.198 40.5806 315.98 41.3772 315.888C42.4154 315.767 43.0794 315.864 43.7223 316.223C44.5394 316.682 44.6115 316.84 44.5331 317.997C44.4596 319.081 44.302 319.36 43.4587 319.896C42.5283 320.487 41.9987 320.526 34.4225 320.553C29.9961 320.57 25.6121 320.532 24.6803 320.471ZM20.0493 311.98C19.4134 311.149 19.7965 310.438 21.0124 310.194C23.7359 309.648 35.9334 308.787 44.3205 308.55L50.1239 308.386L50.5085 309.166C50.8439 309.846 50.8318 310.019 50.4132 310.521C49.8031 311.253 48.0512 311.447 38.6582 311.823C22.5394 312.468 20.436 312.486 20.0493 311.98ZM110.524 245.961C115.2 245.238 125.859 244.566 136.503 244.322C142.561 244.184 149.867 243.933 152.74 243.766C155.614 243.598 164 243.334 171.378 243.178C193.468 242.712 208.706 242.284 210.205 242.089C210.982 241.988 213.587 241.765 215.994 241.592C218.401 241.419 221.133 241.141 222.065 240.974C224.693 240.502 227.306 240.079 228.701 239.901C229.4 239.812 230.353 239.528 230.819 239.269L231.666 238.799L231.59 234.307C231.548 231.836 231.371 225.954 231.197 221.234C230.83 211.312 230.475 196.044 230.233 179.864C230.12 172.258 229.961 168.39 229.751 168.114C229.277 167.494 221.453 167.726 221.053 168.372C220.881 168.651 220.831 170.095 220.928 172.049C221.145 176.437 221.536 225.003 221.4 230.789L221.292 235.44L219.856 236.11C218.52 236.734 217.752 236.799 208.665 237.061C173.811 238.062 160.29 238.478 155.564 238.693C153.312 238.796 146.768 239.022 141.022 239.196C115.527 239.968 109.483 240.145 102.005 240.336C97.6301 240.449 93.9564 240.643 93.8413 240.768C93.7263 240.894 93.7796 241.53 93.9598 242.183C94.14 242.836 94.2874 243.986 94.2874 244.739C94.2874 245.492 94.3782 246.206 94.4893 246.327C94.7954 246.659 107.947 246.358 110.524 245.961ZM74.2383 238.081C78.5849 237.866 90.6916 237.406 102.335 237.013C124.617 236.262 136.405 235.822 155.564 235.026C167.497 234.531 176.516 234.214 194.043 233.672C199.443 233.506 203.965 233.299 204.093 233.213C204.221 233.128 207.565 233.039 211.525 233.017C215.485 232.997 218.848 232.886 218.997 232.775C219.293 232.556 219.055 218.059 218.545 205.146C218.382 201.016 218.239 192.949 218.227 187.219C218.216 181.488 218.058 174.869 217.877 172.509L217.547 168.219L212.605 168.041C209.887 167.943 207.454 167.761 207.197 167.636C206.666 167.378 206.354 166.387 206.592 165.714C206.899 164.846 208.256 164.563 212.888 164.399L217.547 164.235L217.514 153.509C217.496 147.61 217.384 139.436 217.267 135.345L217.053 127.907L205.299 128.018C198.834 128.078 187.064 128.28 179.143 128.465C171.222 128.651 154.512 128.954 142.01 129.138C129.507 129.322 114.577 129.605 108.83 129.767C103.084 129.929 90.0715 130.062 79.9142 130.063L61.4464 130.066L61.6547 133.82C61.7693 135.884 61.9828 139.711 62.1291 142.324C62.2754 144.936 62.46 149.418 62.5393 152.283C62.6186 155.149 62.7456 157.809 62.8216 158.195L62.9598 158.898L68.2318 158.85C73.3658 158.804 73.517 158.819 74.0122 159.484C74.7461 160.468 74.6625 161.771 73.8194 162.491C73.1661 163.048 72.7783 163.078 68.1485 162.927L63.1789 162.765L63.3136 166.718C63.3876 168.892 63.5832 173.014 63.7482 175.88C63.9133 178.745 64.2515 185.64 64.4999 191.202C65.0474 203.46 65.4782 212.68 65.7244 217.404L65.9081 220.928L67.7436 220.907C68.7531 220.894 71.7743 220.843 74.4574 220.79C78.8206 220.705 79.3946 220.753 79.8932 221.243C80.5187 221.857 80.636 223.301 80.0977 223.76C79.42 224.337 77.7267 224.482 71.9422 224.459C65.4665 224.431 65.6148 224.381 66.0645 226.485C66.204 227.137 66.3212 230.04 66.3249 232.935C66.3324 238.929 66.1194 238.5 69.0143 238.346C69.9461 238.297 72.2969 238.177 74.2383 238.081ZM100.556 224.391C99.9919 223.778 100.166 222.664 100.909 222.135C101.493 221.72 101.769 221.701 102.674 222.012C105.012 222.817 105.167 223.169 103.584 224.086C102.299 224.83 101.075 224.954 100.556 224.391ZM93.7226 223.232C93.7226 222.523 93.8745 222.277 94.4023 222.133C95.2717 221.896 96.2961 222.472 96.0821 223.078C95.9936 223.328 95.6807 223.533 95.3867 223.533C95.0927 223.533 94.8521 223.671 94.8521 223.839C94.8521 224.008 94.598 224.146 94.2874 224.146C93.8489 224.146 93.7226 223.941 93.7226 223.232ZM113.957 223.585C112.777 222.17 113.778 220.775 115.973 220.775C117.482 220.775 119.5 221.584 119.335 222.123C119.19 222.593 117.666 223.485 116.965 223.51C116.625 223.524 116.268 223.671 116.172 223.839C115.882 224.347 114.456 224.184 113.957 223.585ZM83.5599 223.077C83.0712 222.438 83.4142 221.694 84.1975 221.694C84.9844 221.694 85.5335 222.223 85.5335 222.981C85.5335 223.678 84.0737 223.749 83.5599 223.077ZM125.115 222.958C124.902 222.812 124.78 222.317 124.833 221.814C124.916 221.025 125.034 220.928 125.914 220.928C126.711 220.928 126.919 221.056 126.989 221.588C127.043 222.001 126.835 222.43 126.432 222.737C125.694 223.298 125.625 223.309 125.115 222.958ZM132.831 222.611C132.545 222.109 132.96 221.127 133.542 220.926C134.182 220.706 135.233 221.247 135.233 221.797C135.233 222.745 133.284 223.406 132.831 222.611ZM190.932 222.7C190.141 222.391 190.593 221.124 191.978 219.774L193.376 218.409L192.543 217.543C191.219 216.166 191.442 214.738 193.067 214.197C193.599 214.02 193.949 214.238 194.977 215.386C195.669 216.158 196.404 216.791 196.611 216.791C197.767 216.791 198.366 219.324 197.427 220.246C196.719 220.941 194.399 221.969 193.025 222.196C192.379 222.303 191.723 222.491 191.568 222.614C191.413 222.737 191.127 222.776 190.932 222.7ZM142.208 222.42C141.337 221.474 143.07 219.913 144.266 220.566C145.57 221.277 145.191 221.987 143.267 222.435C142.794 222.545 142.317 222.537 142.208 222.42ZM151.823 221.976C151.318 221.657 151.193 220.902 151.5 220.034C151.786 219.223 154.19 219.38 154.95 220.258C155.779 221.216 155.728 221.388 154.61 221.388C154.086 221.388 153.498 221.594 153.305 221.847C152.898 222.38 152.514 222.413 151.823 221.976ZM160.15 221.775C159.516 221.535 159.214 220.568 159.511 219.722C159.724 219.112 159.982 218.936 160.66 218.936C161.586 218.936 162.341 219.524 162.341 220.245C162.341 221.043 160.89 222.055 160.15 221.775ZM184.932 221.435C184.932 221.124 185.408 220.046 185.991 219.039C186.573 218.033 187.185 216.952 187.351 216.637C187.901 215.593 188.511 215.38 189.151 216.008C189.471 216.322 189.732 216.855 189.732 217.192C189.732 218.029 187.834 220.774 187.255 220.774C187.113 220.774 186.766 221.05 186.485 221.387C185.835 222.167 184.932 222.194 184.932 221.435ZM174.908 220.777C174.656 219.913 174.954 219.549 175.912 219.549C176.647 219.549 176.743 219.655 176.743 220.468C176.743 221.28 176.647 221.387 175.915 221.387C175.336 221.387 175.033 221.204 174.908 220.777ZM84.1216 203.837C83.2923 203.378 83.0421 202.059 83.6759 201.488C84.02 201.178 84.5445 201.175 86.3022 201.474C87.5102 201.68 89.2363 201.913 90.138 201.993C91.4721 202.11 91.7608 202.232 91.6882 202.645C91.6391 202.924 91.2826 203.201 90.8959 203.259C90.5092 203.317 90.0658 203.472 89.9105 203.602C89.3543 204.069 84.8693 204.251 84.1216 203.837ZM100.994 204.014C100.669 203.922 100.5 203.576 100.5 203.003C100.5 201.885 101.533 201.443 103.093 201.895C103.95 202.144 104.171 202.353 104.171 202.92C104.171 203.312 104.012 203.686 103.818 203.752C103.093 203.998 101.471 204.148 100.994 204.014ZM126.667 203.102C126.564 202.99 126.479 202.441 126.479 201.882C126.479 201.039 126.606 200.832 127.229 200.662C128.266 200.38 128.802 201.177 128.405 202.412C128.203 203.041 127.93 203.307 127.487 203.307C127.139 203.307 126.771 203.215 126.667 203.102ZM134.597 202.88C133.931 202.331 133.945 200.493 134.62 199.83C135.728 198.741 137.774 199.538 137.774 201.058C137.774 201.792 136.291 203.311 135.588 203.297C135.315 203.29 134.869 203.104 134.597 202.88ZM144.057 202.535C143.317 201.965 143.199 200.518 143.846 199.935C144.079 199.725 145.064 199.369 146.035 199.144C148.733 198.519 152.458 199.367 152.458 200.605C152.458 202.037 145.49 203.638 144.057 202.535ZM116.37 202.326C115.574 201.462 116.551 200.023 117.643 200.449C118.431 200.757 119.203 201.76 119.029 202.25C118.836 202.798 116.856 202.854 116.37 202.326ZM186.909 202.387C186.676 202.224 186.193 202.088 185.836 202.086C183.905 202.072 182.881 200.352 184.094 199.16C184.598 198.665 185.168 198.598 188.738 198.614C193.216 198.635 195.023 199.023 196.027 200.185L196.651 200.905L195.729 201.799C194.807 202.693 194.802 202.694 191.069 202.689C189.014 202.687 187.142 202.551 186.909 202.387ZM162.887 201.43C162.643 200.934 162.652 200.605 162.925 200.051C163.443 199 165.01 199.046 166.065 200.144C166.805 200.914 166.826 201 166.39 201.523C165.686 202.368 163.319 202.305 162.887 201.43ZM172.974 201.52C172.313 200.727 172.393 200.077 173.242 199.353C173.903 198.789 174.052 198.769 174.74 199.155C175.16 199.39 175.652 199.938 175.835 200.372C176.121 201.054 176.1 201.162 175.678 201.163C175.409 201.164 174.826 201.371 174.381 201.623C173.395 202.181 173.534 202.191 172.974 201.52ZM207.172 201.085C206.717 200.704 206.578 200.234 206.642 199.286C206.683 198.68 208.857 198.31 210.346 198.656C211.13 198.838 211.352 199.049 211.42 199.674C211.489 200.314 211.321 200.559 210.53 200.966C209.371 201.563 207.81 201.619 207.172 201.085ZM88.2904 184.141C87.3974 183.607 87.0026 182.366 87.5133 181.698C87.962 181.111 88.6119 181.122 89.7412 181.733C90.5453 182.168 90.6375 182.349 90.5612 183.342C90.4889 184.282 90.3629 184.472 89.7693 184.532C89.381 184.571 88.7155 184.395 88.2904 184.141ZM112.08 183.609C111.693 183.395 111.333 182.975 111.28 182.676C111.105 181.689 111.77 181.243 113.414 181.243H114.964L114.766 182.392C114.532 183.75 114.668 183.58 113.631 183.811C113.15 183.918 112.479 183.832 112.08 183.609ZM97.728 183.214C97.5236 182.963 97.3965 182.451 97.4456 182.077C97.5253 181.468 97.7216 181.386 99.2997 181.305C100.27 181.254 101.065 181.315 101.065 181.436C101.065 181.858 99.016 183.694 98.5582 183.683C98.3059 183.676 97.9323 183.465 97.728 183.214ZM119.934 183.141C118.952 183.016 118.509 182.408 118.622 181.34C118.763 180.011 119.942 179.528 121.838 180.021C124.142 180.621 124.229 180.758 123.062 181.952C122.019 183.02 121.256 183.31 119.934 183.141ZM104.792 182.713C104.012 181.867 104.796 180.787 105.959 181.104C107.275 181.462 107.22 183.081 105.891 183.081C105.473 183.081 104.978 182.916 104.792 182.713ZM127.275 181.703C126.773 180.508 127.602 179.71 129.346 179.71C130.479 179.71 130.715 179.806 130.715 180.266C130.715 181.098 129.252 182.468 128.363 182.468C127.82 182.468 127.503 182.246 127.275 181.703ZM135.463 180.975C134.569 180.108 134.563 180.083 135.042 179.29C135.448 178.617 135.738 178.484 136.801 178.484C137.736 178.484 138.123 178.622 138.257 179.002C138.36 179.291 138.293 179.573 138.107 179.641C137.924 179.707 137.774 180.016 137.774 180.327C137.774 180.918 137.072 181.855 136.629 181.855C136.487 181.855 135.963 181.459 135.463 180.975ZM146.426 181.151C145.911 180.703 145.655 180.231 145.722 179.849C145.864 179.043 147.088 178.869 147.571 179.586C148.032 180.271 148.036 180.678 147.587 181.336C147.26 181.815 147.173 181.802 146.426 181.151ZM155.011 181.41C154.554 180.813 154.859 179.895 155.673 179.422C157.121 178.582 157.996 179.591 157.102 181.071C156.575 181.944 155.546 182.11 155.011 181.41ZM164.198 181.267C163.519 180.454 163.717 179.277 164.553 179.149C165.241 179.043 166.295 179.846 166.295 180.476C166.295 180.906 165.387 181.855 164.975 181.855C164.817 181.855 164.467 181.591 164.198 181.267ZM173.516 180.76C172.987 180.187 172.942 179.361 173.411 178.852C173.939 178.278 174.526 178.413 175.384 179.305C176.124 180.075 176.144 180.161 175.709 180.684C175.137 181.37 174.11 181.405 173.516 180.76ZM182.165 180.568C181.357 179.691 182.1 178.353 183.293 178.537C184.486 178.72 184.195 180.935 182.977 180.935C182.717 180.935 182.351 180.77 182.165 180.568ZM190.58 179.625C189.276 178.906 189.582 176.645 190.982 176.645C191.617 176.645 193.403 178.394 193.403 179.017C193.403 179.764 191.553 180.163 190.58 179.625ZM197.992 179.56C197.21 178.948 197.15 177.557 197.873 176.846C198.544 176.187 202.117 176.142 203.251 176.778C204.479 177.468 204.794 178.016 204.246 178.51C202.939 179.687 198.999 180.349 197.992 179.56ZM92.499 171.538C91.9805 170.976 92.5021 167.145 93.4518 164.541C93.5747 164.204 93.8448 163.256 94.0519 162.435C94.4533 160.845 95.3969 159.485 96.0994 159.485C96.7508 159.485 97.1279 160.503 96.8509 161.514C96.5612 162.572 95.4959 165.769 95.0766 166.839C94.9116 167.261 94.6778 167.881 94.5572 168.218C94.4365 168.555 94.104 169.486 93.8184 170.286C93.3316 171.649 92.942 172.019 92.499 171.538ZM86.9455 168.69C86.7125 168.548 85.6881 168.07 84.6691 167.626C83.65 167.183 82.3406 166.394 81.7592 165.874C79.8366 164.154 80.4137 163.095 85.0612 159.812C85.9425 159.189 86.8337 159.292 87.2034 160.059C87.5633 160.806 87.1273 161.72 85.8412 162.914C85.206 163.504 84.6864 164.056 84.6864 164.141C84.6864 164.427 85.6702 165.464 86.8043 166.372C88.3544 167.614 88.6397 167.945 88.6397 168.503C88.6397 169.026 87.6713 169.133 86.9455 168.69ZM102.194 168.596C102.194 168.144 103.288 166.324 104.675 164.468C105.355 163.558 105.53 163.135 105.261 163.055C105.05 162.993 104.423 162.785 103.868 162.592C103.314 162.4 102.608 162.243 102.301 162.243C101.994 162.243 101.59 162.077 101.403 161.875C100.417 160.804 101.711 159.631 103.367 160.095C103.887 160.241 104.835 160.508 105.474 160.688C106.113 160.869 107.221 161.017 107.935 161.017C109.36 161.017 110.012 161.712 109.673 162.868C109.458 163.605 104.54 168.372 103.996 168.372C103.782 168.372 103.606 168.51 103.606 168.678C103.606 168.847 103.288 168.985 102.9 168.985C102.512 168.985 102.194 168.81 102.194 168.596ZM132.465 163.714C131.282 162.43 133.128 161.635 135.465 162.421C135.954 162.586 135.194 163.468 134.564 163.468C134.329 163.468 134.058 163.606 133.962 163.775C133.723 164.195 132.877 164.16 132.465 163.714ZM122.181 163.257C121.845 162.854 121.794 162.556 121.995 162.166C122.338 161.5 123.291 161.48 124.459 162.112C125.573 162.715 125.636 163.467 124.573 163.472C124.146 163.475 123.537 163.552 123.22 163.645C122.866 163.748 122.467 163.599 122.181 163.257ZM139.398 163.444C138.757 163.039 138.767 162.165 139.42 161.524C140.039 160.916 140.256 160.901 141.245 161.4C142.101 161.831 142.227 162.576 141.566 163.293C141.062 163.84 140.127 163.905 139.398 163.444ZM157.611 163.458C156.871 163.135 156.747 161.91 157.396 161.325C157.732 161.023 158.03 161.04 158.879 161.406C160.211 161.982 160.334 162.561 159.27 163.243C158.815 163.535 158.398 163.765 158.344 163.754C158.291 163.744 157.961 163.61 157.611 163.458ZM148.858 163.093C148.089 162.691 147.965 161.103 148.679 160.806C149.974 160.267 151.311 161.923 150.468 163.024C150.075 163.539 149.736 163.553 148.858 163.093ZM164.512 162.774C163.979 162.312 163.777 161.916 163.899 161.574C164.163 160.827 164.664 160.71 166.715 160.918C168.256 161.074 168.554 161.196 168.554 161.673C168.554 162.065 168.348 162.241 167.892 162.241C167.527 162.241 166.999 162.517 166.718 162.854C166.057 163.647 165.493 163.626 164.512 162.774ZM172.974 161.681C172.717 161.373 172.507 160.98 172.507 160.809C172.507 160.304 173.494 159.483 174.1 159.483C174.879 159.483 176.244 161.085 176.015 161.732C175.756 162.465 173.599 162.429 172.974 161.681ZM181.006 161.547C179.329 160.611 179.549 159.095 181.388 158.927C182.673 158.809 183.52 159.522 183.52 160.721C183.52 161.329 183.347 161.607 182.885 161.742C181.996 162 181.777 161.978 181.006 161.547ZM192.574 160.728C192.253 160.38 191.991 159.949 191.991 159.77C191.991 158.303 193.814 157.64 194.127 158.992C194.575 160.928 193.679 161.928 192.574 160.728ZM201.472 160.428C200.769 159.584 200.991 158.433 201.879 158.321C202.443 158.249 202.654 158.419 202.907 159.146C203.173 159.912 203.146 160.139 202.74 160.538C202.124 161.143 202.064 161.138 201.472 160.428ZM71.2363 147.691C70.8613 146.631 71.6461 146.307 74.6258 146.292C76.1987 146.285 79.5188 146.137 82.0038 145.964C84.4887 145.792 91.4142 145.518 97.3936 145.357C103.373 145.195 113.221 144.926 119.278 144.758C125.335 144.59 134.802 144.333 140.316 144.186C145.829 144.04 154.661 143.777 159.941 143.601C165.222 143.426 174.816 143.137 181.261 142.959C187.706 142.781 195.295 142.477 198.125 142.284C202.781 141.967 203.338 141.982 203.984 142.441C204.895 143.089 204.935 144.299 204.063 144.839C203.586 145.135 200.272 145.283 190.721 145.432C183.732 145.542 173.439 145.769 167.848 145.938C162.257 146.107 149.867 146.4 140.316 146.59C130.764 146.779 122.695 147.011 122.384 147.105C121.71 147.309 98.7025 147.847 82.775 148.032C72.7062 148.149 71.3846 148.11 71.2363 147.691ZM73.694 139.982C73.0135 139.044 72.9329 137.451 73.5052 136.25C74.0265 135.156 75.6562 134.484 76.5586 134.991C78.3255 135.983 78.6554 137.298 77.6016 139.149C76.5395 141.014 74.7225 141.401 73.694 139.982ZM83.2434 139.53C81.9292 138.104 83.4717 134.661 85.4247 134.661C86.5658 134.661 87.5102 135.845 87.5102 137.275C87.5102 139.598 84.683 141.093 83.2434 139.53ZM93.5184 139.58C91.9567 138.533 91.9736 137.097 93.5718 135.036C94.9793 133.22 97.285 133.937 97.8463 136.363C98.0456 137.225 97.3514 138.71 96.4491 139.352C95.2899 140.176 94.4989 140.238 93.5184 139.58ZM229.864 163.697C229.883 163.486 229.859 163.176 229.812 163.008C229.764 162.839 229.654 157.185 229.566 150.443L229.407 138.185L227.713 138.241C225.604 138.309 221.948 138.798 221.289 139.098C220.83 139.307 220.794 140.18 220.794 151.217C220.794 157.759 220.872 163.329 220.966 163.595C221.112 164.008 221.781 164.08 225.484 164.08C228.755 164.08 229.839 163.985 229.864 163.697ZM246.81 110.444C247.135 109.925 247.334 109.871 248.044 110.112C248.51 110.27 249.355 110.553 249.922 110.741C250.674 110.99 251.821 110.992 254.158 110.751C255.966 110.564 261.4 110.46 266.623 110.513L275.884 110.605L276.053 109.873C276.349 108.59 275.887 94.8004 275.43 91.2991C274.622 85.1126 274.456 83.9542 274.152 82.412C273.986 81.5693 273.78 80.4316 273.694 79.8838C273.59 79.2199 273.379 78.8879 273.06 78.8879C272.798 78.8879 272.428 78.7193 272.238 78.5134C271.971 78.224 267.61 78.1582 253.068 78.2241C242.714 78.271 234.131 78.3846 233.994 78.4764C233.857 78.5683 233.827 78.8708 233.928 79.1487C234.279 80.1211 235.163 86.5283 235.784 92.6015C235.926 93.992 236.159 96.2674 236.301 97.6579C236.443 99.0484 236.821 102.461 237.142 105.243C237.463 108.024 237.729 110.471 237.732 110.682C237.736 110.972 238.797 111.065 242.08 111.065C246.122 111.065 246.449 111.022 246.81 110.444ZM244.054 97.712C243.201 96.7306 243.103 96.4354 243.103 94.8541C243.103 92.7579 243.63 92.0666 245.685 91.4664C248.06 90.773 249.315 91.8 249.315 94.4358C249.315 97.2257 248.155 98.8063 246.109 98.8063C245.209 98.8063 244.829 98.6043 244.054 97.712ZM254.965 98.2674C254.222 97.8631 253.908 97.437 253.672 96.5092C253.172 94.5518 253.501 93.52 255.294 91.4174C256.282 90.2585 257.678 90.2153 258.873 91.3068C260.338 92.6439 260.395 95.187 259 96.9852C257.82 98.507 256.295 98.9916 254.965 98.2674ZM265.221 98.288C264.309 98.0914 263.235 96.7799 263.035 95.6188C262.855 94.584 262.951 94.0108 263.514 92.739C263.844 91.9927 266.228 90.5308 267.115 90.5308C269.378 90.5308 270.626 93.4875 269.434 96.025C268.627 97.7427 266.926 98.6561 265.221 98.288ZM25.2006 74.8708C25.8856 74.5322 26.5158 73.4401 26.5158 72.5918C26.5158 72.2374 26.0263 72.1466 24.1155 72.1466C22.7954 72.1466 21.7193 72.25 21.7243 72.3764C21.7403 72.79 22.5017 73.718 23.443 74.4717C24.5237 75.337 24.3415 75.2956 25.2006 74.8708ZM22.1666 64.2998C23.1694 63.8451 24.2448 63.83 26.657 64.2369C27.0945 64.3107 27.2217 64.1596 27.2217 63.566V62.7999H23.6958C20.5189 62.7999 20.1602 62.8547 20.0716 63.354C19.9334 64.1326 20.214 64.7918 20.6836 64.7918C20.9025 64.7918 21.5698 64.5704 22.1666 64.2998ZM19.7658 54.7616C20.99 54.0862 23.637 54.1107 25.4836 54.8145C26.2361 55.1012 26.9044 55.2787 26.9689 55.2087C27.0333 55.1388 26.8477 54.4049 26.5563 53.5778C25.6957 51.1347 25.4464 50.0459 25.2471 47.858C25.097 46.2106 24.9402 45.7184 24.4805 45.4514C23.8194 45.0674 23.7301 45.1655 22.776 47.3242C22.0282 49.016 18.8712 52.5338 18.1007 52.5338C17.1715 52.5338 17.0963 53.4586 17.9472 54.4224C18.3693 54.9006 18.735 55.2918 18.7597 55.2918C18.7844 55.2918 19.2372 55.0532 19.7658 54.7616ZM34.1767 52.304C35.7578 50.0021 36.6504 47.6953 37.4079 43.9533C38.2799 39.645 37.6627 35.1129 35.5595 30.3803C34.3657 27.694 32.1824 25.3037 29.7212 23.9885C28.0242 23.0816 27.5338 22.9614 25.5297 22.9614C23.5435 22.9614 23.0288 23.0849 21.4074 23.9503C17.9088 25.8177 14.917 30.2978 13.7797 35.3726C13.1798 38.0496 13.3108 43.3548 14.0472 46.2035C14.9022 49.5112 15.3567 50.3887 16.2153 50.3887C17.1889 50.3887 18.9938 48.5256 19.8712 46.6148L20.6009 45.0258L19.345 43.8C17.7345 42.2283 17.4778 41.6275 17.4875 39.4533C17.507 35.1181 21.3575 31.4805 23.4865 33.7862C24.0456 34.3918 24.1312 34.8671 24.2567 38.0612C24.3899 41.4494 24.4326 41.6602 25.0053 41.7488C25.4978 41.825 25.7462 41.526 26.3196 40.1669C27.1356 38.2325 28.6177 36.5876 30.0516 36.0249C30.9281 35.6809 31.1613 35.7034 31.9592 36.2091C33.1336 36.9535 33.6282 38.0015 33.4738 39.4187C33.3057 40.9627 32.3754 42.2814 30.5704 43.5345C29.2479 44.4526 29.0585 44.7093 29.0673 45.5715C29.0885 47.6409 30.6501 52.9997 31.3782 53.5011C32.3006 54.1363 33.175 53.7623 34.1767 52.304ZM125.303 318.01C124.778 317.354 123.937 314.725 123.937 313.742C123.937 312.681 123.43 311.6 121.441 308.419C118.951 304.436 117.565 302.903 116.455 302.903C115.9 302.903 115.232 302.575 114.608 301.996C113.978 301.412 113.308 301.085 112.724 301.077C111.054 301.053 108.76 300.099 108.419 299.286C107.917 298.092 108.635 297.201 110.296 296.954C112.218 296.668 114.43 296.094 114.746 295.799C114.893 295.661 115.178 295.548 115.379 295.548C116.486 295.548 119.826 291.556 120.251 289.726C120.585 288.286 121.392 284.549 121.574 283.597C121.9 281.894 123.081 279.318 123.738 278.879C124.151 278.602 124.343 278.68 124.79 279.306C125.091 279.728 125.34 280.545 125.343 281.123C125.35 282.213 125.696 283.592 126.426 285.435C126.659 286.025 127.783 287.506 128.924 288.726C130.064 289.946 130.997 291.206 130.997 291.526C130.997 292.128 132.484 293.097 133.409 293.097C133.869 293.097 134.917 293.561 137.633 294.966C138.254 295.287 139.045 295.549 139.39 295.549C139.735 295.549 140.728 295.889 141.596 296.306C143.146 297.05 143.173 297.084 143.086 298.221C143.012 299.191 142.884 299.396 142.292 299.485C141.904 299.543 141.459 299.699 141.304 299.831C141.149 299.963 140.259 300.308 139.327 300.597C134.333 302.147 131.007 305.437 130.993 308.84C130.987 310.402 130.722 311.04 129.847 311.601C129.064 312.103 129.02 312.239 129.02 314.182C129.02 315.521 128.848 316.606 128.526 317.306C128.099 318.234 127.877 318.391 126.888 318.47C126.062 318.536 125.621 318.408 125.303 318.01ZM131.582 287.999C131.26 287.555 130.997 286.787 130.997 286.293C130.997 285.001 130.518 284.21 129.737 284.21C128.892 284.21 128.172 283.456 128.178 282.579C128.183 281.699 128.514 281.169 129.335 280.726C129.95 280.395 130.015 280.15 130.082 277.919C130.123 276.575 130.303 275.166 130.483 274.786C131.109 273.467 133.219 274.138 133.247 275.665C133.267 276.757 134.467 279.293 135.055 279.485C136.072 279.817 137.209 281.19 137.209 282.084C137.209 283.08 136.784 283.508 135.656 283.646C134.847 283.745 134.801 283.831 134.633 285.528C134.346 288.426 132.8 289.679 131.582 287.999ZM42.2245 20.1144C42.1486 19.9811 42.2499 19.464 42.4493 18.9652C43.1002 17.3376 43.4587 15.1806 43.4587 12.8917C43.4587 10.2852 43.98 9.39878 45.3014 9.75868C46.9868 10.2178 47.2617 13.5364 45.8766 16.704C44.7124 19.3664 42.8102 21.1427 42.2245 20.1144ZM6.82481 19.2751C6.33917 19.0535 4.94803 17.856 3.7334 16.614C2.51878 15.3721 1.1686 14.1886 0.73301 13.9842C0.00370589 13.642 -0.0521637 13.4977 0.0270546 12.1604C0.0983586 10.9567 0.233848 10.6478 0.819037 10.3547C3.17102 9.1768 6.1292 12.3963 8.00978 18.1807C8.47804 19.6211 8.18207 19.8944 6.82481 19.2751ZM16.4368 12.1044C16.1112 11.7753 15.3197 10.6935 14.6779 9.70057C14.0361 8.70763 13.1332 7.59212 12.6715 7.22164C11.987 6.67244 11.8319 6.32465 11.8319 5.33847C11.8319 4.38396 11.9819 4.02224 12.5433 3.62304C13.3394 3.05701 14.9864 3.18905 15.5764 3.86618C16.3469 4.75059 16.9823 6.7549 17.4899 9.90269C17.7473 11.4986 17.7339 11.9378 17.4172 12.2815C17.0876 12.6392 16.9392 12.6124 16.4368 12.1044ZM28.8313 8.34378C28.6449 8.14153 28.4924 7.7554 28.4924 7.48573C28.4924 7.21605 28.3784 6.8644 28.239 6.70428C28.0996 6.54415 27.9169 5.86154 27.833 5.18736C27.2526 0.522634 27.2418 0.844079 27.9975 0.306692C28.926 -0.353481 30.0977 0.0987429 30.3563 1.21703C30.6542 2.50516 29.8218 8.71152 29.3511 8.71152C29.2516 8.71152 29.0177 8.54605 28.8313 8.34378Z" fill="black"/>
<path opacity="0.3" fill-rule="evenodd" clip-rule="evenodd" d="M13.1916 418.596C-2.59853 372.454 139.439 311.263 271.529 306.773C403.618 302.282 479.39 374.568 427.622 431.892C375.855 489.216 28.9817 464.738 13.1916 418.596Z" fill="#DEDEDE"/>
</svg>
