<svg width="34" height="36" viewBox="0 0 34 36" fill="none" xmlns="http://www.w3.org/2000/svg">
<path d="M10.5691 27.8029C10.5691 27.0393 10.4675 11.9312 10.5691 8.85805C10.6707 5.78496 13.7941 5.90184 13.7941 8.92353L13.7941 11.5628H21.938C22.6168 11.5628 24.0781 11.2482 24.0781 13.1525C24.0781 15.0568 23.3301 15.0743 22.6514 15.0743L13.7941 15.0743L13.7941 25.1388C13.7941 25.1388 18.637 22.6845 19.4456 22.3267C20.2543 21.9688 21.1676 22.4001 21.5646 23.2147C22.001 24.1099 21.7782 25.2096 20.9986 25.6224C20.219 26.0351 14.3326 28.9444 12.9725 29.5232C11.6123 30.1019 10.5691 28.5665 10.5691 27.8029Z" fill="#111827"/>
<rect x="1.75" y="1.75" width="30.5" height="32" rx="8.25" stroke="#111827" stroke-width="3.5"/>
</svg>
